HIERARCHY
ROOT root
{
	OFFSET	0	13.1	24.9
	CHANNELS 6  Xposition Yposition Zposition Xrotation Yrotation Zrotation
	JOINT spine_1
	{
		OFFSET	0	9.99999	0
		CHANNELS 3  Xrotation Yrotation Zrotation
		JOINT spine_2
		{
			OFFSET	0	112	-10
			CHANNELS 3  Xrotation Yrotation Zrotation
			JOINT spine_3
			{
				OFFSET	0	206.5	19.3
				CHANNELS 3  Xrotation Yrotation Zrotation
				JOINT spine_4
				{
					OFFSET	0	110.4	14.6
					CHANNELS 3  Xrotation Yrotation Zrotation
					JOINT neck_1
					{
						OFFSET	0	71.8	-50.3
						CHANNELS 3  Xrotation Yrotation Zrotation
						JOINT neck_2
						{
							OFFSET	0	86.2	-25.8
							CHANNELS 3  Xrotation Yrotation Zrotation
							JOINT head_ee
							{
								OFFSET	0	179.8	-8.7
								CHANNELS 3  Xrotation Yrotation Zrotation
								End Site
								{
									OFFSET	1	0	0
								}
							}
						}
					}
					JOINT left_clavicle
					{
						OFFSET	-43.2	22.4	-70.8
						CHANNELS 3  Xrotation Yrotation Zrotation
						JOINT left_shoulder
						{
							OFFSET	-93.9	-5.79999	48.7
							CHANNELS 3  Xrotation Yrotation Zrotation
							JOINT left_elbow
							{
								OFFSET	-291.4	-30.8	15.2
								CHANNELS 3  Xrotation Yrotation Zrotation
								JOINT left_lowarm_twist
								{
									OFFSET	-110.7	-3.89999	13.6
									CHANNELS 3  Xrotation Yrotation Zrotation
									JOINT left_hand
									{
										OFFSET	-110.7	-3.89999	13.6
										CHANNELS 3  Xrotation Yrotation Zrotation
										JOINT left_ee
										{
											OFFSET	-80.8	-5.10001	12.1
											CHANNELS 3  Xrotation Yrotation Zrotation
											End Site
											{
												OFFSET	1	0	0
											}
										}
									}
								}
							}
						}
					}
					JOINT right_clavicle
					{
						OFFSET	43.2	22.4	-70.8
						CHANNELS 3  Xrotation Yrotation Zrotation
						JOINT right_shoulder
						{
							OFFSET	93.9	-5.79999	48.7
							CHANNELS 3  Xrotation Yrotation Zrotation
							JOINT right_elbow
							{
								OFFSET	291.4	-30.8	15.2
								CHANNELS 3  Xrotation Yrotation Zrotation
								JOINT right_lowarm_twist
								{
									OFFSET	110.7	-3.89999	13.6
									CHANNELS 3  Xrotation Yrotation Zrotation
									JOINT right_hand
									{
										OFFSET	110.7	-3.89999	13.6
										CHANNELS 3  Xrotation Yrotation Zrotation
										JOINT right_ee
										{
											OFFSET	80.8	-5.10001	12.1
											CHANNELS 3  Xrotation Yrotation Zrotation
											End Site
											{
												OFFSET	1	0	0
											}
										}
									}
								}
							}
						}
					}
				}
			}
		}
	}
	JOINT left_hip
	{
		OFFSET	-82.8	-127.5	0.300001
		CHANNELS 3  Xrotation Yrotation Zrotation
		JOINT left_knee
		{
			OFFSET	-28.2	-396.7	2.2
			CHANNELS 3  Xrotation Yrotation Zrotation
			JOINT left_ankle
			{
				OFFSET	-11.7	-411.3	35.4
				CHANNELS 3  Xrotation Yrotation Zrotation
				JOINT left_toes
				{
					OFFSET	0	-60	-88.6
					CHANNELS 3  Xrotation Yrotation Zrotation
					JOINT left_foot_ee
					{
						OFFSET	-22.5	-16.5	-42.2
						CHANNELS 3  Xrotation Yrotation Zrotation
						End Site
						{
							OFFSET	1	0	0
						}
					}
				}
			}
		}
	}
	JOINT right_hip
	{
		OFFSET	82.8	-127.5	0.300001
		CHANNELS 3  Xrotation Yrotation Zrotation
		JOINT right_knee
		{
			OFFSET	28.2	-396.7	2.2
			CHANNELS 3  Xrotation Yrotation Zrotation
			JOINT right_ankle
			{
				OFFSET	11.7	-411.3	35.4
				CHANNELS 3  Xrotation Yrotation Zrotation
				JOINT right_toes
				{
					OFFSET	0	-60	-88.6
					CHANNELS 3  Xrotation Yrotation Zrotation
					JOINT right_foot_ee
					{
						OFFSET	22.5	-16.5	-42.2
						CHANNELS 3  Xrotation Yrotation Zrotation
						End Site
						{
							OFFSET	1	0	0
						}
					}
				}
			}
		}
	}
}
MOTION
Frames: 8
Frame Time: 0.02
345.81 759.591 -585.287 179.026 -76.8247 -177.641 -2.13557 -0.0259562 -1.02203 -2.13498 0.0391276 -1.02162 -2.13515 0.289733 -0.980455 -2.13647 0.131261 -1.0139 -22.7838 10.8016 13.2902 -22.6434 14.7955 17.2678 -0.0 0.0 -0.0 9.47254 14.0466 17.4326 -13.7908 -26.0668 58.7366 0.750576 -20.3958 0.135023 23.655 0.218519 -2.99243 -3.92298 28.7255 -9.98674 -0.0 0.0 -0.0 12.0026 17.6628 -24.0859 -22.0086 11.4584 -54.6436 1.23488 31.4539 -0.347749 54.1975 1.28543 6.54767 7.32584 23.7594 -40.4059 0.0 0.0 0.0 7.68741 64.9555 -9.15743 1.20705 -0.0515834 -0.178039 9.1984 -29.7124 -1.65527 12.7158 -0.0 -0.0 -0.0 0.0 -0.0 7.62265 23.3257 -8.75334 -10.8412 -0.292361 -1.63561 16.825 -11.3166 2.3351 -16.2539 0.0 0.0 0.0 0.0 0.0 
347.791 759.847 -586.568 179.659 -76.852 -177.196 -2.15779 -0.00297104 -1.01723 -2.15722 0.0617606 -1.01536 -2.15781 0.310512 -0.96869 -2.15908 0.153636 -1.00557 -22.0413 10.988 13.2707 -21.8922 14.9896 17.1931 -0.0 0.0 -0.0 9.62445 12.7876 17.8523 -13.7511 -26.1467 58.8372 0.677357 -18.5489 0.110612 24.0696 0.211277 -3.04489 -3.90837 28.5957 -9.98836 -0.0 0.0 -0.0 11.9393 17.4104 -23.9544 -21.0105 10.3043 -55.1393 1.24565 31.6756 -0.353384 54.311 1.29443 6.55909 7.50968 25.3556 -40.5309 0.0 0.0 0.0 7.60574 64.3924 -8.92067 0.246093 -0.0102115 -0.0363844 8.67699 -29.743 -1.56553 11.7574 -0.0 -0.0 -0.0 0.0 -0.0 7.60956 23.1434 -8.70452 -11.3174 -0.298062 -1.70845 17.1932 -12.6589 2.38707 -15.7276 0.0 0.0 0.0 0.0 0.0 
347.705 758.34 -588.233 -179.622 -77.2797 -176.355 -1.97162 0.00902244 -1.1402 -1.9709 0.0815532 -1.13731 -1.97192 0.356298 -1.08314 -1.97351 0.180775 -1.12581 -21.4403 11.232 13.8343 -21.233 15.0476 17.6962 -0.0 0.0 -0.0 9.69475 12.7826 17.9789 -14.122 -26.0323 59.0707 0.674714 -18.4814 0.109773 23.907 0.214164 -3.02431 -4.10692 28.3792 -11.222 -0.0 0.0 -0.0 11.4468 16.9585 -22.8538 -21.9139 9.84964 -54.9621 1.25371 31.841 -0.357627 54.1959 1.2853 6.54751 7.56211 25.7207 -40.6338 0.0 0.0 0.0 7.5368 63.9904 -8.73347 -0.310284 0.012652 0.0459353 8.60738 -29.7936 -1.55448 11.4339 -0.0 -0.0 -0.0 0.0 -0.0 7.78057 23.107 -8.55773 -11.4242 -0.299257 -1.72479 17.4089 -13.6085 2.4189 -15.6158 0.0 0.0 0.0 0.0 0.0 
347.556 759.967 -589.118 -179.693 -77.1134 -176.276 -2.05649 0.0324295 -1.28037 -2.05558 0.11383 -1.27571 -2.05738 0.423156 -1.20887 -2.05934 0.226943 -1.26052 -21.7389 10.7964 14.1256 -21.4741 14.1408 17.8192 -0.0 0.0 -0.0 9.82718 15.0702 17.9206 -14.1368 -27.419 58.6923 0.710474 -19.3894 0.121378 23.9135 0.214049 -3.02514 -4.23815 28.3705 -11.956 -0.0 0.0 -0.0 11.5414 16.9824 -23.0679 -21.4322 10.1569 -54.8612 1.21402 31.021 -0.336928 53.748 1.25001 6.50228 7.35616 25.7619 -38.9523 0.0 0.0 0.0 7.60675 63.6729 -8.74629 -0.638938 0.0257811 0.0946626 8.55422 -29.8596 -1.54661 11.2806 -0.0 -0.0 -0.0 0.0 -0.0 7.90851 23.1596 -8.71064 -11.4926 -0.300007 -1.73526 17.0253 -14.5642 2.37398 -15.1748 0.0 0.0 0.0 0.0 0.0 
349.858 759.315 -589.832 -179.717 -77.1356 -176.288 -2.07017 0.0331204 -1.33242 -2.06919 0.117831 -1.32761 -2.07112 0.440068 -1.2581 -2.07325 0.23587 -1.3118 -22.1485 10.2816 14.3427 -21.8319 13.1466 17.8567 -0.0 0.0 -0.0 9.70258 16.5747 17.498 -13.9485 -28.4487 58.6974 0.75115 -20.4101 0.135223 23.9051 0.214196 -3.02408 -4.33824 28.3034 -12.5581 -0.0 0.0 -0.0 11.6904 17.3077 -23.3906 -21.489 10.2063 -54.8178 1.18549 30.4227 -0.322353 53.4264 1.22488 6.46962 7.19528 25.7549 -37.6946 0.0 0.0 0.0 7.28141 63.514 -8.25892 -0.877995 0.0351553 0.130152 8.50893 -29.7091 -1.53559 11.1892 -0.0 -0.0 -0.0 0.0 -0.0 8.04027 23.1679 -8.75389 -11.5689 -0.300828 -1.74693 16.6832 -15.2712 2.3333 -14.8736 0.0 0.0 0.0 0.0 0.0 
350.535 758.096 -587.961 -179.701 -76.1292 -176.384 -2.02179 -0.123164 -1.36278 -2.02076 -0.0362058 -1.36785 -2.01888 0.299366 -1.33519 -2.02135 0.0847622 -1.3657 -21.4237 10.2016 13.8482 -21.1286 13.0392 17.2468 -0.0 0.0 -0.0 9.28939 16.5542 16.8029 -14.3147 -28.9814 58.774 0.770039 -20.8795 0.141883 24.346 0.206238 -3.07984 -4.29928 28.8251 -11.9942 -0.0 0.0 -0.0 12.0016 17.4337 -24.0959 -21.7463 10.8019 -54.8528 1.15395 29.7526 -0.30654 53.0848 1.1984 6.43479 7.00293 25.2497 -36.6135 0.0 0.0 0.0 7.9652 63.3091 -8.96676 -1.14219 0.0453421 0.169417 8.4304 -29.8201 -1.52419 10.7283 -0.0 -0.0 -0.0 0.0 -0.0 8.06779 23.1668 -8.70795 -11.5808 -0.300955 -1.74875 16.4657 -15.7466 2.30761 -14.4499 0.0 0.0 0.0 0.0 0.0 
350.752 756.37 -589.727 -179.804 -75.89 -176.144 -2.00244 -0.162598 -1.23435 -2.0016 -0.0837297 -1.2422 -1.9989 0.222114 -1.22505 -2.001 0.0258685 -1.24475 -21.5224 9.90972 13.788 -21.2142 12.5273 17.0798 -0.0 0.0 -0.0 8.95578 17.5264 16.1228 -14.1405 -29.5444 58.629 0.79042 -21.3828 0.149231 24.2427 0.208141 -3.06678 -4.41502 28.5038 -12.852 -0.0 0.0 -0.0 12.0497 17.8758 -24.1824 -21.7554 11.2787 -54.5212 1.14605 29.5835 -0.302633 52.8653 1.18149 6.41232 6.94665 25.296 -36.1422 0.0 0.0 0.0 8.34495 62.7663 -9.3041 -1.23159 0.0487483 0.182714 8.36502 -29.8009 -1.51239 10.9509 -0.0 -0.0 -0.0 0.0 -0.0 8.06342 23.1628 -9.03363 -11.6312 -0.301488 -1.75648 16.6236 -16.0231 2.32993 -14.308 0.0 0.0 0.0 0.0 0.0 
351.878 757.769 -592.29 179.784 -75.3624 -176.323 -1.99914 -0.242145 -1.22957 -1.99831 -0.16342 -1.24248 -1.99382 0.144777 -1.24479 -1.99598 -0.053616 -1.25203 -20.5003 9.56557 14.223 -20.1007 11.3821 17.1649 -0.0 0.0 -0.0 9.304 16.4202 16.8449 -14.1049 -29.7816 57.7388 0.677328 -18.5481 0.110603 25.6444 0.180315 -3.24366 -3.84676 28.6753 -9.60029 -0.0 0.0 -0.0 12.1983 18.955 -24.4599 -21.9473 12.0407 -54.5429 1.05719 27.6404 -0.260072 52.0244 1.11752 6.32567 6.5399 22.9808 -34.7877 0.0 0.0 0.0 7.94109 61.3908 -9.21166 -1.31623 0.0519539 0.195309 8.37089 -29.723 -1.51183 11.2045 -0.0 -0.0 -0.0 0.0 -0.0 8.42953 25.8861 -9.67409 -11.7678 -0.302897 -1.77739 16.6075 -15.2807 2.32348 -14.4014 0.0 0.0 0.0 0.0 0.0 
